HIERARCHY
ROOT Hips
{
  OFFSET 0.000000 0.000000 0.000000
  CHANNELS 6 Xposition Yposition Zposition Xrotation Yrotation Zrotation
  JOINT Spine
  {
    OFFSET 1.388230 22.849755 -8.157144
    CHANNELS 3 Xrotation Yrotation Zrotation
    JOINT Chest
    {
      OFFSET 1.388230 22.849755 -8.157144
      CHANNELS 3 Xrotation Yrotation Zrotation
      JOINT Neck
      {
        OFFSET 0.386562 8.498444 -3.690407
        CHANNELS 3 Xrotation Yrotation Zrotation
        JOINT Head
        {
          OFFSET 0.662911 7.396516 -7.447500
          CHANNELS 3 Xrotation Yrotation Zrotation
          End Site
          {
            OFFSET 0.198873 2.218955 -2.234250
          }
        }
      }
      JOINT LeftShoulder
      {
        OFFSET 17.248308 -1.208605 -0.261267
        CHANNELS 3 Xrotation Yrotation Zrotation
        JOINT LeftArm
        {
          OFFSET 7.635523 -21.435821 1.774202
          CHANNELS 3 Xrotation Yrotation Zrotation
          JOINT LeftForeArm
          {
            OFFSET 7.643843 -21.327462 -9.147581
            CHANNELS 3 Xrotation Yrotation Zrotation
            JOINT LeftHand
            {
              OFFSET 0.473402 -5.275506 -2.178749
              CHANNELS 3 Xrotation Yrotation Zrotation
              End Site
              {
                OFFSET 0.142021 -1.582652 -0.653625
              }
            }
          }
        }
      }
      JOINT RightShoulder
      {
        OFFSET -17.248308 1.208605 0.261267
        CHANNELS 3 Xrotation Yrotation Zrotation
        JOINT RightArm
        {
          OFFSET -12.133127 -21.363330 5.693170
          CHANNELS 3 Xrotation Yrotation Zrotation
          JOINT RightForeArm
          {
            OFFSET -7.740244 -22.047532 -5.230031
            CHANNELS 3 Xrotation Yrotation Zrotation
            JOINT RightHand
            {
              OFFSET -0.480044 -5.557554 -1.525311
              CHANNELS 3 Xrotation Yrotation Zrotation
              End Site
              {
                OFFSET -0.144013 -1.667266 -0.457593
              }
            }
          }
        }
      }
    }
  }
  JOINT LeftUpLeg
  {
    OFFSET 11.699587 -0.675443 -0.599665
    CHANNELS 3 Xrotation Yrotation Zrotation
    JOINT LeftLeg
    {
      OFFSET -6.527727 -38.483662 1.737457
      CHANNELS 3 Xrotation Yrotation Zrotation
      JOINT LeftFoot
      {
        OFFSET 3.065902 -35.809878 12.679608
        CHANNELS 3 Xrotation Yrotation Zrotation
        End Site
        {
          OFFSET 0.919771 -10.742963 3.803882
        }
      }
    }
  }
  JOINT RightUpLeg
  {
    OFFSET -11.699587 0.675443 0.599665
    CHANNELS 3 Xrotation Yrotation Zrotation
    JOINT RightLeg
    {
      OFFSET -1.173808 -37.981520 -1.210152
      CHANNELS 3 Xrotation Yrotation Zrotation
      JOINT RightFoot
      {
        OFFSET -7.846448 -39.021816 7.691272
        CHANNELS 3 Xrotation Yrotation Zrotation
        End Site
        {
          OFFSET -2.353934 -11.706545 2.307382
        }
      }
    }
  }
}
MOTION
Frames: 12
Frame Time: 0.083333
0.000000 60.000000 0.000000 -0.754759 0.036580 -0.025527 -20.369404 -0.590515 -3.285558 -16.809275 -0.444876 -2.398866 0.496996 -0.067327 -0.023415 5.000000 0.000000 0.000000 -0.027464 0.034519 0.533513 0.681685 -0.102457 0.344506 -97.315431 13.171353 34.010686 0.000000 0.000000 0.000000 2.507782 -1.334604 0.356902 3.202876 -0.291517 0.207146 -95.771871 -10.494472 -24.143646 0.000000 0.000000 0.000000 -2.295424 0.499936 1.262340 -0.412969 0.393010 1.184662 0.000000 0.000000 0.000000 -4.839706 0.138123 -0.216140 -3.305358 0.856089 0.702019 0.000000 0.000000 0.000000
-0.257243 60.000000 -1.638203 -0.761052 0.042716 -0.010551 -20.376046 -0.587458 -3.269021 -16.868547 -0.442306 -2.378744 0.330991 -0.041861 -0.012676 5.000000 0.000000 0.000000 -0.138342 -0.008417 0.474633 0.660185 -0.088974 0.308823 -97.583394 13.174358 33.865168 0.000000 0.000000 0.000000 2.144296 -1.137399 0.323476 2.762762 -0.250145 0.173815 -95.759684 -10.534093 -24.204686 0.000000 0.000000 0.000000 -2.141339 0.472996 1.176666 -0.453032 0.357501 1.086920 0.000000 0.000000 0.000000 -4.334311 0.120443 -0.222932 -2.884310 0.754126 0.634023 0.000000 0.000000 0.000000
-0.710694 60.000000 -4.164375 -2.153119 0.140919 0.022356 -21.771693 -0.615098 -3.201337 -17.617050 -0.431546 -2.223584 0.511469 -0.046830 -0.001937 5.000000 0.000000 0.000000 -0.664287 -0.125368 1.238925 1.776031 -0.222051 0.787708 -95.428349 12.827682 34.465806 0.000000 0.000000 0.000000 5.053109 -2.673488 0.795579 6.485110 -0.577857 0.376815 -94.952400 -10.117910 -23.877167 0.000000 0.000000 0.000000 -5.512243 1.243871 3.140330 -1.295122 0.887024 2.718312 0.000000 0.000000 0.000000 -10.718983 0.290189 -0.622340 -6.820129 1.817726 1.628172 0.000000 0.000000 0.000000
-1.080862 60.000000 -5.480810 -3.047343 0.251816 0.167268 -22.670994 -0.606174 -3.023452 -18.338293 -0.397087 -1.958169 -0.033841 0.083497 0.079981 5.000000 0.000000 0.000000 -1.352121 -0.321845 1.687081 2.253127 -0.268097 0.961621 -95.529541 12.675783 34.139796 0.000000 0.000000 0.000000 5.143857 -2.734845 0.741796 6.281295 -0.512472 0.209509 -94.371510 -10.078508 -24.018020 0.000000 0.000000 0.000000 -6.393535 1.519719 4.192241 -1.611620 0.960720 2.969724 0.000000 0.000000 0.000000 -11.695641 0.304333 -0.795532 -6.526777 1.859617 2.046549 0.000000 0.000000 0.000000
-1.402397 60.000000 -5.917965 -3.256636 0.322216 0.312844 -22.884013 -0.578820 -2.861210 -18.413359 -0.358542 -1.762142 0.237301 0.121570 0.142449 5.000000 0.000000 0.000000 -0.913195 -0.119048 2.272446 2.068388 -0.320672 1.054762 -95.741365 12.676806 34.017450 0.000000 0.000000 0.000000 5.366424 -2.975434 0.164326 5.633533 -0.349858 -0.170476 -93.992454 -10.217780 -24.361791 0.000000 0.000000 0.000000 -5.419806 1.376153 4.800359 -0.750591 0.838121 2.502202 0.000000 0.000000 0.000000 -10.614975 0.293684 -0.560376 -5.083530 1.624008 2.404411 0.000000 0.000000 0.000000
-1.822454 60.000000 -6.127072 -3.935158 0.445253 0.508331 -23.568487 -0.547351 -2.630587 -18.842910 -0.322185 -1.551101 0.193994 0.210253 0.225652 5.000000 0.000000 0.000000 -0.537550 0.025771 2.487549 2.315889 -0.324508 1.094736 -94.078297 12.052572 33.849169 0.000000 0.000000 0.000000 5.761070 -3.362716 -0.667989 6.000954 -0.268871 -0.531742 -92.998234 -10.513858 -25.160418 0.000000 0.000000 0.000000 -4.973554 1.307590 5.089350 -0.434397 0.908290 2.644017 0.000000 0.000000 0.000000 -10.374373 0.296390 -0.412313 -4.926034 1.662431 2.703147 0.000000 0.000000 0.000000
-2.693350 60.000000 -5.835325 -4.811071 0.648139 0.861561 -24.454442 -0.479704 -2.221996 -19.577235 -0.264075 -1.225392 -0.521543 0.472269 0.415397 5.000000 0.000000 0.000000 -1.081044 -0.164042 2.395819 3.732596 -0.455011 1.545849 -81.377183 9.622499 31.642044 0.000000 0.000000 0.000000 5.687795 -3.483041 -1.495454 6.551958 -0.305984 -0.534023 -92.583571 -10.683555 -25.571639 0.000000 0.000000 0.000000 -4.763362 1.267686 5.157784 -0.724578 0.847308 2.524825 0.000000 0.000000 0.000000 -10.517761 0.305501 -0.324628 -5.612714 1.841483 2.783853 0.000000 0.000000 0.000000
-3.798798 60.000000 -6.009728 -5.351215 0.824176 1.200104 -25.003531 -0.407677 -1.838705 -20.163078 -0.206531 -0.923831 -1.305641 0.872406 0.731390 5.000000 0.000000 0.000000 -2.627009 -0.636445 2.562273 6.962271 -1.013414 3.055374 -45.375081 4.942288 20.877724 0.000000 0.000000 0.000000 6.485791 -4.157904 -2.866611 8.082370 -0.469262 -0.349890 -92.623380 -10.544332 -25.345650 0.000000 0.000000 0.000000 -4.374445 1.194607 5.306691 -1.525691 0.754267 2.402354 0.000000 0.000000 0.000000 -10.440084 0.301195 -0.361119 -6.508591 2.049675 2.782222 0.000000 0.000000 0.000000
-5.242286 60.000000 -7.419654 -5.112986 0.784519 1.147824 -24.763490 -0.418292 -1.903800 -20.081552 -0.214286 -0.962002 -1.638144 0.963672 0.785627 5.000000 0.000000 0.000000 -5.237606 -1.043272 6.147242 10.670419 -2.323882 5.957138 0.000000 0.000000 0.000000 0.000000 0.000000 0.000000 9.469929 -5.744970 -3.148465 10.370767 -0.715829 -0.095139 -93.249062 -10.322734 -24.778484 0.000000 0.000000 0.000000 -3.894635 1.134492 5.832257 -2.279273 0.745090 2.504480 0.000000 0.000000 0.000000 -9.916328 0.288425 -0.315505 -6.696643 2.116602 2.869313 0.000000 0.000000 0.000000
-7.132708 60.000000 -8.927111 -5.717868 0.717574 0.881226 -25.363786 -0.490335 -2.170751 -20.410912 -0.247091 -1.088245 -1.825268 1.245076 1.035186 5.000000 0.000000 0.000000 -5.509200 -0.114598 16.069772 14.458912 -3.904265 9.050223 0.000000 0.000000 0.000000 0.000000 0.000000 0.000000 12.153124 -7.115215 -3.188574 10.937382 -0.877354 0.263568 -93.847886 -10.207204 -24.392925 0.000000 0.000000 0.000000 -4.173973 1.224282 6.164026 -4.066485 0.604183 2.426637 0.000000 0.000000 0.000000 -9.447825 0.287321 -0.054821 -7.405525 2.282714 2.870009 0.000000 0.000000 0.000000
-9.223938 60.000000 -9.803641 -6.433929 0.515354 0.281114 -26.067630 -0.649645 -2.795122 -20.938245 -0.314922 -1.349516 -2.173460 1.958638 1.677318 5.000000 0.000000 0.000000 -1.492384 2.081820 31.560754 17.673927 -5.216361 11.384807 -5.106387 -0.134192 0.633662 0.000000 0.000000 0.000000 11.078493 -6.628597 -3.631539 8.274462 -0.787329 0.603369 -94.613716 -10.077239 -23.932561 0.000000 0.000000 0.000000 -4.182945 1.265577 6.624539 -3.811522 0.543620 2.231900 0.000000 0.000000 0.000000 -8.929688 0.297887 0.446658 -8.331455 2.460814 2.724935 0.000000 0.000000 0.000000
-10.495690 60.000000 -10.236750 -7.058883 0.328262 -0.260032 -26.681173 -0.796402 -3.359763 -21.464556 -0.385227 -1.615608 -2.745660 2.519544 2.142146 5.000000 0.000000 0.000000 1.680935 3.504780 46.879697 16.901554 -5.726555 12.393156 -22.885241 -0.601406 2.839875 0.000000 0.000000 0.000000 8.887490 -5.569139 -3.907657 6.766781 -0.718840 0.759375 -94.613883 -9.796150 -23.514935 0.000000 0.000000 0.000000 -4.428119 1.311827 6.518150 -3.384143 0.581053 2.266224 0.000000 0.000000 0.000000 -9.560468 0.345203 1.016648 -8.643704 2.509530 2.634840 0.000000 0.000000 0.000000
